<svg xmlns="http://www.w3.org/2000/svg" viewBox="0 0 100 100"><defs><style>.cls-1{fill:#fff;}.cls-2{font-size:14px;fill:#414141;font-family:Futura;}.cls-3{letter-spacing:-0.06em;}.cls-4{fill:#2fbb1c;}.cls-5{fill:none;stroke:#414141;stroke-miterlimit:10;}</style></defs><title>Artboard 1</title><g id="bleed"><rect class="cls-1" x="-5" y="-5" width="110" height="110"/></g><g id="Layer_2" data-name="Layer 2"><circle class="cls-1" cx="48.5" cy="35.5" r="33"/><text class="cls-2" transform="translate(5 81.5)"><tspan class="cls-3">W</tspan><tspan x="13.54" y="0">oocommerce</tspan></text><text class="cls-2" transform="translate(34.25 95)">Spinio</text><circle class="cls-4" cx="48.5" cy="35.5" r="1.5"/><polyline class="cls-4" points="48.5 35.5 70.36 10.78 61.79 5.29"/><polyline class="cls-4" points="48.5 35.5 46.41 2.57 36.47 4.76"/><polyline class="cls-4" points="48.5 35.5 23.69 13.74 18.23 22.33"/><polyline class="cls-4" points="48.5 35.5 15.58 37.73 17.81 47.66"/><polyline class="cls-4" points="48.5 35.5 26.85 60.4 35.46 65.82"/><polyline class="cls-4" points="48.5 35.5 50.86 68.41 60.79 66.14"/><polyline class="cls-4" points="48.5 35.5 73.49 57.05 78.88 48.41"/><polyline class="cls-4" points="48.5 35.5 81.4 33 79.08 23.09"/><circle class="cls-5" cx="48.5" cy="35.5" r="33"/></g></svg>